<svg xmlns="http://www.w3.org/2000/svg" width="92" height="80" viewBox="0 0 92 80" version="1.1">
	<path d="M 34.734 11.030 C 20.228 14.673, 10.662 26.768, 10.671 41.454 C 10.676 50.310, 13.336 56.711, 19.705 63.195 C 26.148 69.754, 32.561 72.388, 42 72.352 C 54.243 72.304, 64.162 66.318, 69.818 55.563 C 73.707 48.170, 73.707 34.830, 69.818 27.437 C 66.665 21.440, 60.411 15.512, 54.466 12.882 C 49.329 10.610, 39.923 9.727, 34.734 11.030 M 33.453 15.265 C 22.187 19.831, 14.991 29.636, 15.006 40.399 C 15.012 45.056, 16.631 51.654, 17.971 52.482 C 18.464 52.787, 24.575 46.278, 31.551 38.018 C 38.526 29.758, 44.577 23, 44.998 23 C 45.418 23, 50.653 27.037, 56.631 31.972 C 62.609 36.907, 67.858 40.957, 68.295 40.972 C 69.286 41.007, 68.178 34.560, 66.470 30.360 C 64.643 25.865, 58.312 19.200, 53.568 16.778 C 48.679 14.281, 37.884 13.469, 33.453 15.265 M 33.500 44.586 C 27.450 52.012, 22.354 58.506, 22.175 59.018 C 21.738 60.272, 30.561 65.783, 34.965 67.007 C 42.397 69.071, 52.461 67.007, 58.101 62.261 C 62.246 58.774, 67 52.186, 67 49.930 C 67 48.254, 47.132 30.948, 45.318 31.043 C 44.868 31.067, 39.550 37.161, 33.500 44.586" stroke="none" fill="black" fill-rule="evenodd"/>
</svg>